<svg xmlns="http://www.w3.org/2000/svg" xmlns:xlink="http://www.w3.org/1999/xlink" version="1.1" x="0px" y="0px" viewBox="0 0 100 100" enable-background="new 0 0 100 100" xml:space="preserve"><g><path d="M84.639,45.156H35.264c-2.766,0-5,2.234-5,5s2.234,5,5,5h49.375c2.766,0,5-2.234,5-5S87.404,45.156,84.639,45.156z"/><circle cx="16.514" cy="50.156" r="6.152"/><path d="M35.264,31.875h49.375c2.766,0,5-2.234,5-5s-2.234-5-5-5H35.264c-2.766,0-5,2.234-5,5S32.498,31.875,35.264,31.875z"/><circle cx="16.514" cy="26.875" r="6.152"/><path d="M84.639,68.125H35.264c-2.766,0-5,2.234-5,5s2.234,5,5,5h49.375c2.766,0,5-2.234,5-5S87.404,68.125,84.639,68.125z"/><circle cx="16.514" cy="73.125" r="6.152"/></g></svg>
