<?xml version="1.0" encoding="UTF-8" standalone="no"?>
<svg
   xmlns:dc="http://purl.org/dc/elements/1.1/"
   xmlns:cc="http://creativecommons.org/ns#"
   xmlns:rdf="http://www.w3.org/1999/02/22-rdf-syntax-ns#"
   xmlns:svg="http://www.w3.org/2000/svg"
   xmlns="http://www.w3.org/2000/svg"
   xmlns:sodipodi="http://sodipodi.sourceforge.net/DTD/sodipodi-0.dtd"
   xmlns:inkscape="http://www.inkscape.org/namespaces/inkscape"
   version="1.1"
   x="0px"
   y="0px"
   viewBox="0 0 100 100"
   enable-background="new 0 0 100 100"
   xml:space="preserve"
   id="svg2"
   inkscape:version="0.91 r13725"
   sodipodi:docname="arrow_bidi.svg"><metadata
     id="metadata26"><rdf:RDF><cc:Work
         rdf:about=""><dc:format>image/svg+xml</dc:format><dc:type
           rdf:resource="http://purl.org/dc/dcmitype/StillImage" /><dc:title></dc:title></cc:Work></rdf:RDF></metadata><defs
     id="defs24" /><sodipodi:namedview
     pagecolor="#ffffff"
     bordercolor="#666666"
     borderopacity="1"
     objecttolerance="10"
     gridtolerance="10"
     guidetolerance="10"
     inkscape:pageopacity="0"
     inkscape:pageshadow="2"
     inkscape:window-width="3840"
     inkscape:window-height="2048"
     id="namedview22"
     showgrid="false"
     inkscape:zoom="11.896685"
     inkscape:cx="50.000847"
     inkscape:cy="65.53041"
     inkscape:window-x="0"
     inkscape:window-y="0"
     inkscape:window-maximized="1"
     inkscape:current-layer="g4" /><g
     id="g4"><g
       id="g6"><polygon
         points="38,15 68,15 98,44.75 68,75 38,75 68,44.5   "
         id="polygon8" /><path
         d="M68.208,75H36.807l30.486-30.994L36.778,14h31.428l30.501,30.247L68.208,75z M39.193,74h28.599l29.501-29.747L67.794,15    H39.222l29.485,28.994L39.193,74z"
         id="path10" /></g><g
       id="g12"
       transform="matrix(-1,0,0,1,63.485,0)"><polygon
         points="32,15 62,44.75 32,75 2,75 32,44.5 2,15 "
         id="polygon14" /><path
         d="M 32.208,75 0.807,75 31.293,44.006 0.778,14 32.206,14 62.707,44.247 32.208,75 Z M 3.193,74 31.792,74 61.293,44.253 31.794,15 3.222,15 32.707,43.994 3.193,74 Z"
         id="path16"
         inkscape:connector-curvature="0" /></g></g></svg>