<?xml version="1.0" encoding="UTF-8" standalone="no"?>
<svg
   xmlns:dc="http://purl.org/dc/elements/1.1/"
   xmlns:cc="http://creativecommons.org/ns#"
   xmlns:rdf="http://www.w3.org/1999/02/22-rdf-syntax-ns#"
   xmlns:svg="http://www.w3.org/2000/svg"
   xmlns="http://www.w3.org/2000/svg"
   xmlns:sodipodi="http://sodipodi.sourceforge.net/DTD/sodipodi-0.dtd"
   xmlns:inkscape="http://www.inkscape.org/namespaces/inkscape"
   version="1.1"
   x="0px"
   y="0px"
   viewBox="0 0 100 100"
   enable-background="new 0 0 100 100"
   xml:space="preserve"
   id="svg2"
   inkscape:version="0.91 r13725"
   sodipodi:docname="client2server_edited.svg"><metadata
     id="metadata26"><rdf:RDF><cc:Work
         rdf:about=""><dc:format>image/svg+xml</dc:format><dc:type
           rdf:resource="http://purl.org/dc/dcmitype/StillImage" /><dc:title></dc:title></cc:Work></rdf:RDF></metadata><defs
     id="defs24" /><sodipodi:namedview
     pagecolor="#ffffff"
     bordercolor="#666666"
     borderopacity="1"
     objecttolerance="10"
     gridtolerance="10"
     guidetolerance="10"
     inkscape:pageopacity="0"
     inkscape:pageshadow="2"
     inkscape:window-width="1920"
     inkscape:window-height="996"
     id="namedview22"
     showgrid="false"
     inkscape:zoom="1.888"
     inkscape:cx="-53.019068"
     inkscape:cy="-1.059322"
     inkscape:window-x="-8"
     inkscape:window-y="-8"
     inkscape:window-maximized="1"
     inkscape:current-layer="svg2" /><g
     id="g4"
     style="fill:#ff6600"><g
       id="g6"
       style="fill:#ff6600"><polygon
         points="38,15 68,15 98,44.75 68,75 38,75 68,44.5   "
         id="polygon8"
         style="fill:#ff6600" /><path
         d="M68.208,75H36.807l30.486-30.994L36.778,14h31.428l30.501,30.247L68.208,75z M39.193,74h28.599l29.501-29.747L67.794,15    H39.222l29.485,28.994L39.193,74z"
         id="path10"
         style="fill:#ff6600" /></g><g
       id="g12"
       style="fill:#ff6600"><polygon
         points="2,15 32,15 62,44.75 32,75 2,75 32,44.5   "
         id="polygon14"
         style="fill:#ff6600" /><path
         d="M32.208,75H0.807l30.486-30.994L0.778,14h31.428l30.501,30.247L32.208,75z M3.193,74h28.599l29.501-29.747L31.794,15    H3.222l29.485,28.994L3.193,74z"
         id="path16"
         style="fill:#ff6600" /></g></g></svg>