<?xml version="1.0"?>
<svg width="32" height="32" xmlns="http://www.w3.org/2000/svg" xmlns:svg="http://www.w3.org/2000/svg">
 <g>
  <title>Layer 1</title>
  <path stroke="#000000" d="m22.010023,21.21055l-7.954949,0l0,-6l2.983106,0c1.064969,0 1.988737,-0.847 1.988737,-2c0,-0.75 -0.388798,-1.234 -0.994369,-2l-3.977475,-4.812c-0.605571,-0.719 -1.180316,-1.188 -1.988737,-1.188s-1.383167,0.469 -1.988737,1.188l-3.977475,4.812c-0.605571,0.766 -0.994369,1.25 -0.994369,2c0,1.153 0.923768,2 1.988737,2l2.983106,0l0,8c0,1.104 0.890954,2 1.988737,2l9.943687,0c1.097783,0 1.988737,-0.896 1.988737,-2s-0.890954,-2 -1.988737,-2zm12.926793,0" id="svg_1" fill="#000000"/>
  <circle id="svg_8" r="0.08447" cy="21.680856" cx="19.695805" stroke-linecap="null" stroke-linejoin="null" stroke-dasharray="null" stroke-width="null" stroke="#000000" fill="#000000"/>
 </g>
</svg>