<?xml version="1.0" encoding="UTF-8" standalone="no"?>
<svg
   xmlns:dc="http://purl.org/dc/elements/1.1/"
   xmlns:cc="http://creativecommons.org/ns#"
   xmlns:rdf="http://www.w3.org/1999/02/22-rdf-syntax-ns#"
   xmlns:svg="http://www.w3.org/2000/svg"
   xmlns="http://www.w3.org/2000/svg"
   xmlns:sodipodi="http://sodipodi.sourceforge.net/DTD/sodipodi-0.dtd"
   xmlns:inkscape="http://www.inkscape.org/namespaces/inkscape"
   version="1.1"
   x="0px"
   y="0px"
   viewBox="0 0 32 32"
   style="enable-background:new 0 0 32 32;"
   xml:space="preserve"
   id="svg2"
   inkscape:version="0.91 r13725"
   sodipodi:docname="intercept_client.svg"><metadata
     id="metadata10"><rdf:RDF><cc:Work
         rdf:about=""><dc:format>image/svg+xml</dc:format><dc:type
           rdf:resource="http://purl.org/dc/dcmitype/StillImage" /></cc:Work></rdf:RDF></metadata><defs
     id="defs8" /><sodipodi:namedview
     pagecolor="#ffffff"
     bordercolor="#666666"
     borderopacity="1"
     objecttolerance="10"
     gridtolerance="10"
     guidetolerance="10"
     inkscape:pageopacity="0"
     inkscape:pageshadow="2"
     inkscape:window-width="1913"
     inkscape:window-height="1067"
     id="namedview6"
     showgrid="false"
     inkscape:zoom="7.375"
     inkscape:cx="16"
     inkscape:cy="10.576271"
     inkscape:window-x="401"
     inkscape:window-y="249"
     inkscape:window-maximized="0"
     inkscape:current-layer="svg2" /><path
     d="m 24.033898,15.322034 -3,0 0,8 c 0,1.104 -0.896,2 -2,2 l -9.9999997,0 c -1.104,0 -2,-0.896 -2,-2 0,-1.104 0.896,-2 2,-2 l 7.9999997,0 0,-6 -3,0 c -1.071,0 -2,-0.847 -2,-2 0,-0.75 0.391,-1.234 1,-2 l 4,-4.8130001 c 0.609,-0.718 1.188,-1.187 2,-1.187 0.812,0 1.391,0.469 2,1.188 l 4,4.8120001 c 0.609,0.766 1,1.25 1,2 0,1.153 -0.929,2 -2,2 z"
     id="path4"
     inkscape:connector-curvature="0" /></svg>