<svg xmlns="http://www.w3.org/2000/svg" xmlns:xlink="http://www.w3.org/1999/xlink" version="1.1" x="0px" y="0px" viewBox="0 0 32 32" style="enable-background:new 0 0 32 32;" xml:space="preserve"><path d="M17,22H9v-6h3c1.071,0,2-0.847,2-2c0-0.75-0.391-1.234-1-2L9,7.188C8.391,6.469,7.813,6,7,6S5.609,6.469,5,7.188L1,12  c-0.609,0.766-1,1.25-1,2c0,1.153,0.929,2,2,2h3v8c0,1.104,0.896,2,2,2h10c1.104,0,2-0.896,2-2S18.104,22,17,22z M30,16h-3V8  c0-1.104-0.896-2-2-2H15c-1.104,0-2,0.896-2,2s0.896,2,2,2h8v6h-3c-1.071,0-2,0.847-2,2c0,0.75,0.391,1.234,1,2l4,4.813  C23.609,25.531,24.188,26,25,26s1.391-0.469,2-1.188L31,20c0.609-0.766,1-1.25,1-2C32,16.847,31.071,16,30,16z"/></svg>