<?xml version="1.0" encoding="UTF-8" standalone="no"?>
<svg
   xmlns:dc="http://purl.org/dc/elements/1.1/"
   xmlns:cc="http://creativecommons.org/ns#"
   xmlns:rdf="http://www.w3.org/1999/02/22-rdf-syntax-ns#"
   xmlns:svg="http://www.w3.org/2000/svg"
   xmlns="http://www.w3.org/2000/svg"
   xmlns:sodipodi="http://sodipodi.sourceforge.net/DTD/sodipodi-0.dtd"
   xmlns:inkscape="http://www.inkscape.org/namespaces/inkscape"
   version="1.1"
   x="0px"
   y="0px"
   viewBox="0 0 100 100"
   enable-background="new 0 0 100 100"
   xml:space="preserve"
   id="svg2"
   inkscape:version="0.91 r13725"
   sodipodi:docname="server2client_edited.svg"><metadata
     id="metadata26"><rdf:RDF><cc:Work
         rdf:about=""><dc:format>image/svg+xml</dc:format><dc:type
           rdf:resource="http://purl.org/dc/dcmitype/StillImage" /><dc:title></dc:title></cc:Work></rdf:RDF></metadata><defs
     id="defs24" /><sodipodi:namedview
     pagecolor="#ffffff"
     bordercolor="#666666"
     borderopacity="1"
     objecttolerance="10"
     gridtolerance="10"
     guidetolerance="10"
     inkscape:pageopacity="0"
     inkscape:pageshadow="2"
     inkscape:window-width="1920"
     inkscape:window-height="996"
     id="namedview22"
     showgrid="false"
     inkscape:zoom="1.888"
     inkscape:cx="-53.019068"
     inkscape:cy="-1.059322"
     inkscape:window-x="-8"
     inkscape:window-y="-8"
     inkscape:window-maximized="1"
     inkscape:current-layer="svg2" /><g
     id="g4"
     transform="matrix(-1,0,0,1,99.485,0)"
     style="fill:#ff6600"><g
       id="g6"
       style="fill:#ff6600"><polygon
         points="68,15 98,44.75 68,75 38,75 68,44.5 38,15 "
         id="polygon8"
         style="fill:#ff6600" /><path
         d="M 68.208,75 36.807,75 67.293,44.006 36.778,14 68.206,14 98.707,44.247 68.208,75 Z M 39.193,74 67.792,74 97.293,44.253 67.794,15 39.222,15 68.707,43.994 39.193,74 Z"
         id="path10"
         inkscape:connector-curvature="0"
         style="fill:#ff6600" /></g><g
       id="g12"
       style="fill:#ff6600"><polygon
         points="32,15 62,44.75 32,75 2,75 32,44.5 2,15 "
         id="polygon14"
         style="fill:#ff6600" /><path
         d="M 32.208,75 0.807,75 31.293,44.006 0.778,14 32.206,14 62.707,44.247 32.208,75 Z M 3.193,74 31.792,74 61.293,44.253 31.794,15 3.222,15 32.707,43.994 3.193,74 Z"
         id="path16"
         inkscape:connector-curvature="0"
         style="fill:#ff6600" /></g></g></svg>