<svg xmlns="http://www.w3.org/2000/svg" xmlns:xlink="http://www.w3.org/1999/xlink" version="1.1" x="0px" y="0px" viewBox="0 0 100 100" enable-background="new 0 0 100 100" xml:space="preserve"><path d="M24.158,63.6v3.834c0,10.318,8.364,18.682,18.683,18.682c10.314,0,18.68-8.363,18.68-18.682v-9.479h-6.927  c-4.334,0-8.045-3.103-8.811-7.368l-4.725-26.272c-0.805-4.474,1.871-8.841,6.221-10.156c0.048-0.416,0.198-0.817,0.434-1.165  c0.808-1.196,2.428-1.506,3.621-0.698c1.19,0.81,1.502,2.433,0.693,3.623c-0.808,1.191-2.428,1.501-3.621,0.693  c-3.243,0.774-5.316,3.948-4.728,7.229l4.726,26.274c0.538,2.996,3.146,5.18,6.189,5.18h8.258h8.257c3.044,0,5.651-2.184,6.19-5.18  l4.725-26.274c0.588-3.28-1.482-6.454-4.729-7.229c-0.35,0.238-0.748,0.384-1.17,0.435c-1.43,0.162-2.719-0.869-2.885-2.298  c-0.16-1.43,0.865-2.723,2.299-2.882c1.43-0.165,2.719,0.863,2.883,2.292c4.35,1.315,7.027,5.683,6.221,10.156l-4.725,26.272  c-0.764,4.266-4.477,7.368-8.81,7.368h-6.927v9.479c0,11.786-9.555,21.346-21.341,21.346c-11.789,0-21.345-9.56-21.345-21.346V63.6  c-3.221-0.562-5.744-3.085-6.306-6.305c-0.733-4.22,2.087-8.234,6.306-8.968c4.218-0.736,8.234,2.084,8.968,6.304  C31.2,58.849,28.376,62.865,24.158,63.6z M25.064,55.962c0-1.234-1-2.237-2.236-2.237s-2.238,1.003-2.238,2.237  c0,1.236,1.002,2.239,2.238,2.239S25.064,57.198,25.064,55.962L25.064,55.962z"/></svg>
